<svg width="304" height="70" viewBox="0 0 304 70" fill="none" xmlns="http://www.w3.org/2000/svg">
<path d="M19.8115 24.6599V16.8466C19.8115 16.718 19.9248 16.6099 20.0586 16.6099H21.2887C21.4226 16.6099 21.5358 16.718 21.5358 16.8466V19.8062C21.5358 19.8782 21.5873 19.9246 21.6593 19.9246H23.5071C23.5792 19.9246 23.6306 19.8782 23.6306 19.8062V16.8466C23.6306 16.718 23.7439 16.6099 23.8777 16.6099H25.1078C25.2417 16.6099 25.3549 16.718 25.3549 16.8466V24.6599C25.3549 24.7885 25.2417 24.8966 25.1078 24.8966H23.8777C23.7439 24.8966 23.6306 24.7885 23.6306 24.6599V21.7003C23.6306 21.6282 23.5792 21.5819 23.5071 21.5819H21.6593C21.5873 21.5819 21.5358 21.6282 21.5358 21.7003V24.6599C21.5358 24.7885 21.3659 24.8966 21.227 24.8966H20.0586C19.9248 24.8966 19.8115 24.7885 19.8115 24.6599Z" fill="#653C8C"/>
<path d="M27.3832 24.0933C26.9869 23.5734 26.8428 22.9815 26.8428 21.9366C26.8428 20.8969 26.992 20.305 27.3832 19.78C27.8156 19.1984 28.5773 18.8433 29.442 18.8433C30.3016 18.8433 31.0685 19.1984 31.5009 19.78C31.8972 20.2999 32.0413 20.8918 32.0413 21.9366C32.0413 22.9763 31.892 23.5683 31.5009 24.0933C31.0685 24.6749 30.3067 25.03 29.442 25.03C28.5825 25.0249 27.8156 24.6697 27.3832 24.0933ZM30.2192 23.2028C30.3685 23.0021 30.4148 22.6933 30.4148 21.9366C30.4148 21.18 30.3634 20.8712 30.2192 20.6705C30.0597 20.4697 29.8384 20.3874 29.442 20.3874C29.0612 20.3874 28.8244 20.4697 28.6648 20.6705C28.5156 20.8712 28.4692 21.18 28.4692 21.9366C28.4692 22.6933 28.5207 23.0021 28.6648 23.2028C28.8244 23.4036 29.0612 23.4859 29.442 23.4859C29.8384 23.4859 30.0597 23.4036 30.2192 23.2028Z" fill="#653C8C"/>
<path d="M33.7397 24.0933C33.3433 23.5734 33.1992 22.9815 33.1992 21.9366C33.1992 20.8969 33.3485 20.305 33.7397 19.78C34.172 19.1984 34.9338 18.8433 35.7985 18.8433C36.55 18.8433 37.1522 19.0234 37.5742 19.3734C38.0529 19.7749 38.3257 20.4286 38.3257 21.1594C38.3257 21.3036 38.2382 21.3962 38.1147 21.3962H36.9823C36.8485 21.3962 36.761 21.3241 36.7507 21.2058C36.6992 20.8764 36.6272 20.6962 36.4933 20.5675C36.3441 20.4388 36.1227 20.3771 35.8036 20.3771C35.4227 20.3771 35.186 20.4594 35.0264 20.6602C34.8772 20.8609 34.8308 21.1697 34.8308 21.9263C34.8308 22.683 34.8823 22.9918 35.0264 23.1925C35.186 23.3933 35.4227 23.4756 35.8036 23.4756C36.1485 23.4756 36.3441 23.4293 36.483 23.3212C36.6323 23.2028 36.6941 23.0484 36.7558 22.6212C36.7661 22.5131 36.8536 22.4565 36.9875 22.4565H38.1198C38.2433 22.4565 38.3308 22.5491 38.3308 22.6933C38.3308 23.3572 38.1198 23.9337 37.7544 24.3249C37.322 24.7727 36.6477 25.0094 35.8088 25.0094C34.9338 25.0249 34.1669 24.6697 33.7397 24.0933Z" fill="#653C8C"/>
<path d="M39.5967 24.6596V16.7177C39.5967 16.589 39.7099 16.481 39.8437 16.481H40.9504C41.0842 16.481 41.1974 16.589 41.1974 16.7177V18.8486C41.1974 19.003 41.2849 19.1214 41.429 19.1214C41.5526 19.1214 41.8717 18.8486 42.4893 18.8486C43.8173 18.8486 44.6459 19.6773 44.6459 21.0361V24.6596C44.6459 24.7883 44.5327 24.8964 44.3989 24.8964H43.2923C43.1584 24.8964 43.0452 24.7883 43.0452 24.6596V21.1545C43.0452 20.6449 42.7106 20.3361 42.1239 20.3361C41.5474 20.3361 41.2026 20.6295 41.2026 21.103V24.6545C41.2026 24.7832 41.0893 24.8913 40.9555 24.8913H39.8489C39.7099 24.8964 39.5967 24.7883 39.5967 24.6596Z" fill="#653C8C"/>
<path d="M45.7529 22.9303C45.7529 22.8016 45.8507 22.7192 46 22.7192H47.0603C47.2095 22.7192 47.3073 22.8016 47.3073 22.9303C47.3073 23.4398 47.6265 23.6869 48.2801 23.6869C48.8823 23.6869 49.1912 23.5119 49.1912 23.167C49.1912 22.8582 48.9184 22.7192 47.9456 22.503C46.6022 22.22 45.9743 21.592 45.9743 20.5626C45.9743 19.5435 46.9213 18.8486 48.275 18.8486C49.7059 18.8486 50.6169 19.5692 50.6169 20.717C50.6169 20.8457 50.5191 20.928 50.3698 20.928H49.3713C49.222 20.928 49.1243 20.8457 49.1243 20.717C49.1243 20.3516 48.8309 20.1508 48.2853 20.1508C47.8426 20.1508 47.5595 20.331 47.5595 20.6141C47.5595 20.9075 47.7809 21.0258 48.8154 21.278C50.2926 21.6229 50.7868 22.081 50.7868 23.1361C50.7868 24.32 49.85 25.0303 48.275 25.0303C46.6897 25.0251 45.7529 24.2428 45.7529 22.9303Z" fill="#653C8C"/>
<path d="M52.3412 24.0933C51.9449 23.5734 51.8008 22.9815 51.8008 21.9366C51.8008 20.8969 51.95 20.305 52.3412 19.78C52.7736 19.1984 53.5353 18.8433 54.4 18.8433C55.1515 18.8433 55.7537 19.0234 56.1758 19.3734C56.6545 19.7749 56.9273 20.4286 56.9273 21.1594C56.9273 21.3036 56.8398 21.3962 56.7162 21.3962H55.5839C55.45 21.3962 55.3625 21.3241 55.3523 21.2058C55.3008 20.8764 55.2287 20.6962 55.0949 20.5675C54.9456 20.4388 54.7243 20.3771 54.4052 20.3771C54.0243 20.3771 53.7875 20.4594 53.628 20.6602C53.4787 20.8609 53.4324 21.1697 53.4324 21.9263C53.4324 22.683 53.4839 22.9918 53.628 23.1925C53.7875 23.3933 54.0243 23.4756 54.4052 23.4756C54.75 23.4756 54.9456 23.4293 55.0846 23.3212C55.2339 23.2028 55.2956 23.0484 55.3574 22.6212C55.3677 22.5131 55.4552 22.4565 55.589 22.4565H56.7214C56.8449 22.4565 56.9324 22.5491 56.9324 22.6933C56.9324 23.3572 56.7214 23.9337 56.3559 24.3249C55.9236 24.7727 55.2493 25.0094 54.4103 25.0094C53.5353 25.0249 52.7736 24.6697 52.3412 24.0933Z" fill="#653C8C"/>
<path d="M58.2031 24.6596V16.7177C58.2031 16.589 58.3164 16.481 58.4502 16.481H59.5568C59.6906 16.481 59.8039 16.589 59.8039 16.7177V18.8486C59.8039 19.003 59.8914 19.1214 60.0355 19.1214C60.159 19.1214 60.4781 18.8486 61.0958 18.8486C62.4237 18.8486 63.2524 19.6773 63.2524 21.0361V24.6596C63.2524 24.7883 63.1392 24.8964 63.0053 24.8964H61.8987C61.7649 24.8964 61.6517 24.7883 61.6517 24.6596V21.1545C61.6517 20.6449 61.3171 20.3361 60.7303 20.3361C60.1539 20.3361 59.809 20.6295 59.809 21.103V24.6545C59.809 24.7832 59.6958 24.8913 59.5619 24.8913H58.4553C58.3112 24.8964 58.2031 24.7883 58.2031 24.6596Z" fill="#653C8C"/>
<path d="M69.7741 19.2138V24.6594C69.7741 24.7881 69.6609 24.8962 69.5271 24.8962H68.9094C68.8116 24.8962 68.7499 24.8704 68.6881 24.8138C68.5903 24.6851 68.5286 24.505 68.3536 24.505C68.0602 24.505 67.8594 25.0248 66.8763 25.0248C65.5484 25.0248 64.7197 24.1962 64.7197 22.8373V19.2138C64.7197 19.0851 64.833 18.9771 64.9668 18.9771H66.0734C66.2072 18.9771 66.3205 19.0851 66.3205 19.2138V22.719C66.3205 23.2388 66.6653 23.5373 67.2418 23.5373C67.8183 23.5373 68.1631 23.244 68.1631 22.7704V19.219C68.1631 19.0903 68.2763 18.9822 68.4102 18.9822H69.5168C69.6661 18.9771 69.7741 19.0851 69.7741 19.2138Z" fill="#653C8C"/>
<path d="M71.3594 24.6596V16.7177C71.3594 16.589 71.4726 16.481 71.6064 16.481H72.7131C72.8469 16.481 72.9601 16.589 72.9601 16.7177V24.6596C72.9601 24.7883 72.8469 24.8964 72.7131 24.8964H71.6064C71.4726 24.8964 71.3594 24.7883 71.3594 24.6596Z" fill="#653C8C"/>
<path d="M74.8852 24.0933C74.4888 23.5734 74.3447 22.9815 74.3447 21.9366C74.3447 20.8969 74.494 20.305 74.8852 19.78C75.3175 19.1984 76.0793 18.8433 76.944 18.8433C78.555 18.8433 79.4558 19.8469 79.4558 21.6484V22.1683C79.4558 22.2969 79.3477 22.405 79.2087 22.405H76.0175C75.9455 22.405 75.894 22.4513 75.894 22.5234C75.894 23.3058 76.2131 23.6609 76.9388 23.6609C77.4433 23.6609 77.7366 23.4859 77.8859 23.0947C77.9374 22.9661 78.0352 22.894 78.169 22.894H79.2138C79.3734 22.894 79.4609 23.0021 79.4249 23.1565C79.116 24.3403 78.205 25.0249 76.9388 25.0249C76.0793 25.0249 75.3124 24.6697 74.8852 24.0933ZM77.8653 21.2264C77.9374 21.2264 77.9888 21.1903 77.9888 21.1183C77.9888 20.5366 77.5359 20.0991 76.944 20.0991C76.2903 20.0991 75.8734 20.5006 75.8734 21.1183C75.8734 21.1903 75.9249 21.2264 75.9969 21.2264H77.8653Z" fill="#653C8C"/>
<path d="M83.4756 24.6599V16.8466C83.4756 16.718 83.5888 16.6099 83.7227 16.6099H84.9425C85.0763 16.6099 85.1896 16.718 85.1896 16.8466V19.7444C85.1896 19.7907 85.2153 19.8165 85.2513 19.8165C85.2771 19.8165 85.3028 19.7907 85.3388 19.7444L87.4079 16.7282C87.444 16.6716 87.4954 16.6099 87.6807 16.6099H89.0241C89.1837 16.6099 89.2815 16.7282 89.2815 16.8724C89.2815 16.9341 89.2712 16.9907 89.23 17.0371L86.7646 20.4238C86.7131 20.4959 86.6925 20.5525 86.6925 20.6143C86.6925 20.6863 86.7182 20.743 86.7646 20.815L89.266 24.4128C89.3175 24.4849 89.3381 24.5415 89.3381 24.6393C89.3381 24.7834 89.2249 24.9018 89.0293 24.9018H87.7013C87.516 24.9018 87.4543 24.8194 87.3822 24.7113L85.3646 21.5407C85.3285 21.4841 85.2925 21.4327 85.2513 21.4327C85.2153 21.4327 85.1896 21.4584 85.1896 21.5047V24.665C85.1896 24.7937 85.0815 24.9018 84.9425 24.9018H83.7227C83.5888 24.8966 83.4756 24.7885 83.4756 24.6599Z" fill="#653C8C"/>
<path d="M89.7549 23.0744C89.7549 22.153 90.4549 21.2266 91.8755 21.2266H93.1314C93.2034 21.2266 93.2549 21.1803 93.2549 21.1082V20.9178C93.2549 20.4339 92.8483 20.1972 92.3078 20.1972C92.0505 20.1972 91.5461 20.2538 91.4586 20.5883C91.4071 20.7891 91.3505 20.8148 91.124 20.8148H90.2387C90.1049 20.8148 89.9916 20.7067 89.9916 20.578C89.9916 19.6773 90.8924 18.8486 92.3696 18.8486C93.8622 18.8486 94.835 19.6155 94.835 20.9898V24.6597C94.835 24.7883 94.7218 24.8964 94.588 24.8964H93.9703C93.8983 24.8964 93.8211 24.8707 93.8005 24.8141C93.749 24.7214 93.6666 24.5773 93.5174 24.5773C93.2961 24.5773 92.9615 25.0251 91.9166 25.0251C90.6402 25.0251 89.7549 24.3148 89.7549 23.0744ZM93.3166 22.8839V22.6008C93.3166 22.5288 93.2652 22.4825 93.1931 22.4825H92.0505C91.5203 22.4825 91.3247 22.7553 91.3247 23.0744C91.3247 23.5119 91.6953 23.7023 92.138 23.7023C92.7711 23.7023 93.3166 23.5016 93.3166 22.8839Z" fill="#653C8C"/>
<path d="M96.3691 24.6594V19.2138C96.3691 19.0851 96.4772 18.9771 96.6162 18.9771H97.2339C97.3316 18.9771 97.4552 19.0388 97.4912 19.1315C97.5633 19.3322 97.6147 19.6307 97.8258 19.6307C98.2066 19.6307 98.3662 18.9822 99.5861 18.9822H100.003C100.137 18.9822 100.25 19.0903 100.25 19.219V20.341C100.25 20.4697 100.137 20.5778 100.003 20.5778H99.5706C98.6493 20.5778 97.9699 20.9896 97.9699 21.8903V24.6594C97.9699 24.7881 97.8566 24.8962 97.7228 24.8962H96.6162C96.4772 24.8962 96.3691 24.7881 96.3691 24.6594Z" fill="#653C8C"/>
<path d="M101.228 24.6596V16.7177C101.228 16.589 101.341 16.481 101.475 16.481H102.581C102.715 16.481 102.828 16.589 102.828 16.7177V24.6596C102.828 24.7883 102.72 24.8964 102.581 24.8964H101.475C101.341 24.8964 101.228 24.7883 101.228 24.6596Z" fill="#653C8C"/>
<path d="M103.986 22.9303C103.986 22.8016 104.084 22.7192 104.233 22.7192H105.294C105.443 22.7192 105.541 22.8016 105.541 22.9303C105.541 23.4398 105.86 23.6869 106.514 23.6869C107.116 23.6869 107.425 23.5119 107.425 23.167C107.425 22.8582 107.152 22.7192 106.179 22.503C104.836 22.22 104.208 21.592 104.208 20.5626C104.208 19.5435 105.155 18.8486 106.508 18.8486C107.939 18.8486 108.85 19.5692 108.85 20.717C108.85 20.8457 108.753 20.928 108.603 20.928H107.605C107.455 20.928 107.358 20.8457 107.358 20.717C107.358 20.3516 107.064 20.1508 106.519 20.1508C106.076 20.1508 105.793 20.331 105.793 20.6141C105.793 20.9075 106.014 21.0258 107.049 21.278C108.526 21.6229 109.02 22.081 109.02 23.1361C109.02 24.32 108.083 25.0303 106.508 25.0303C104.923 25.0251 103.986 24.2428 103.986 22.9303Z" fill="#653C8C"/>
<path d="M110.256 24.6594V19.2138C110.256 19.0851 110.369 18.9771 110.503 18.9771H111.121C111.218 18.9771 111.342 19.0388 111.378 19.1315C111.45 19.3322 111.501 19.6307 111.712 19.6307C112.093 19.6307 112.253 18.9822 113.473 18.9822H113.89C114.024 18.9822 114.137 19.0903 114.137 19.219V20.341C114.137 20.4697 114.029 20.5778 113.89 20.5778H113.457C112.536 20.5778 111.857 20.9896 111.857 21.8903V24.6594C111.857 24.7881 111.749 24.8962 111.61 24.8962H110.503C110.364 24.8962 110.256 24.7881 110.256 24.6594Z" fill="#653C8C"/>
<path d="M120.107 19.2138V24.6594C120.107 24.7881 119.999 24.8962 119.86 24.8962H119.242C119.145 24.8962 119.083 24.8704 119.021 24.8138C118.923 24.6851 118.862 24.505 118.687 24.505C118.393 24.505 118.192 25.0248 117.209 25.0248C115.881 25.0248 115.053 24.1962 115.053 22.8373V19.2138C115.053 19.0851 115.161 18.9771 115.3 18.9771H116.406C116.54 18.9771 116.653 19.0851 116.653 19.2138V22.719C116.653 23.2388 116.998 23.5373 117.575 23.5373C118.151 23.5373 118.496 23.244 118.496 22.7704V19.219C118.496 19.0903 118.604 18.9822 118.743 18.9822H119.85C119.994 18.9771 120.107 19.0851 120.107 19.2138Z" fill="#653C8C"/>
<path d="M121.692 24.6596V16.7177C121.692 16.589 121.8 16.481 121.939 16.481H123.046C123.18 16.481 123.293 16.589 123.293 16.7177V18.8486C123.293 19.003 123.381 19.1214 123.525 19.1214C123.648 19.1214 123.967 18.8486 124.585 18.8486C125.913 18.8486 126.742 19.6773 126.742 21.0361V24.6596C126.742 24.7883 126.628 24.8964 126.495 24.8964H125.388C125.254 24.8964 125.141 24.7883 125.141 24.6596V21.1545C125.141 20.6449 124.806 20.3361 124.22 20.3361C123.643 20.3361 123.298 20.6295 123.298 21.103V24.6545C123.298 24.7832 123.185 24.8913 123.051 24.8913H121.945C121.8 24.8964 121.692 24.7883 121.692 24.6596Z" fill="#653C8C"/>
<path d="M128.6 24.0933C128.204 23.5734 128.06 22.9815 128.06 21.9366C128.06 20.8969 128.209 20.305 128.6 19.78C129.032 19.1984 129.794 18.8433 130.659 18.8433C132.27 18.8433 133.171 19.8469 133.171 21.6484V22.1683C133.171 22.2969 133.063 22.405 132.924 22.405H129.732C129.66 22.405 129.609 22.4513 129.609 22.5234C129.609 23.3058 129.928 23.6609 130.654 23.6609C131.158 23.6609 131.457 23.4859 131.601 23.0947C131.652 22.9661 131.75 22.894 131.884 22.894H132.929C133.088 22.894 133.176 23.0021 133.14 23.1565C132.831 24.3403 131.92 25.0249 130.654 25.0249C129.794 25.0249 129.032 24.6697 128.6 24.0933ZM131.58 21.2264C131.652 21.2264 131.704 21.1903 131.704 21.1183C131.704 20.5366 131.246 20.0991 130.659 20.0991C130.005 20.0991 129.588 20.5006 129.588 21.1183C129.588 21.1903 129.64 21.2264 129.712 21.2264H131.58Z" fill="#653C8C"/>
<path d="M19.8984 35.5971V29.9765C19.8984 29.8478 20.0117 29.7397 20.1455 29.7397H20.4389C20.5727 29.7397 20.6859 29.8478 20.6859 29.9765V35.5971C20.6859 36.5442 21.4992 37.3831 22.544 37.3831C23.5889 37.3831 24.4021 36.5442 24.4021 35.5971V29.9765C24.4021 29.8478 24.5153 29.7397 24.6492 29.7397H24.9426C25.0764 29.7397 25.1896 29.8478 25.1896 29.9765V35.5971C25.1896 37.0074 24.0058 38.1397 22.544 38.1397C21.0823 38.1449 19.8984 37.0074 19.8984 35.5971Z" fill="#653C8C"/>
<path d="M27.0889 37.79V32.3444C27.0889 32.2157 27.2021 32.1076 27.3359 32.1076H27.5315C27.6036 32.1076 27.655 32.1437 27.7014 32.19C27.7631 32.2981 27.8249 32.4268 27.9484 32.4268C28.283 32.4268 28.3911 31.9893 29.5852 31.9893C30.7536 31.9893 31.6646 32.6532 31.6646 33.9554V37.79C31.6646 37.9187 31.5514 38.0268 31.4175 38.0268H31.1911C31.0572 38.0268 30.944 37.9187 30.944 37.79V34.0635C30.944 33.1165 30.2646 32.6893 29.3793 32.6893C28.494 32.6893 27.8146 33.1165 27.8146 34.0635V37.79C27.8146 37.9187 27.7014 38.0268 27.5675 38.0268H27.3359C27.2021 38.0268 27.0889 37.9187 27.0889 37.79Z" fill="#653C8C"/>
<path d="M33.2549 30.512V29.812C33.2549 29.7194 33.3424 29.6216 33.4505 29.6216H34.1659C34.2791 29.6216 34.3615 29.7142 34.3615 29.812V30.512C34.3615 30.6201 34.274 30.7025 34.1659 30.7025H33.4556C33.3424 30.6973 33.2549 30.615 33.2549 30.512ZM33.9343 38.0267H33.6872C33.5174 38.0267 33.4402 37.9186 33.4402 37.79V32.3444C33.4402 32.2157 33.5122 32.1076 33.6872 32.1076H33.9343C34.1041 32.1076 34.1814 32.2157 34.1814 32.3444V37.79C34.1814 37.9186 34.1041 38.0267 33.9343 38.0267Z" fill="#653C8C"/>
<path d="M37.5163 37.8464L35.3855 32.4986C35.3494 32.4162 35.334 32.3545 35.334 32.3082C35.334 32.2001 35.4215 32.1074 35.5656 32.1074H35.8847C35.998 32.1074 36.07 32.1537 36.1163 32.2876L37.9538 37.0589C37.9796 37.131 38.0156 37.1515 38.0516 37.1515C38.0877 37.1515 38.1391 37.1258 38.1649 37.0589L39.9972 32.2876C40.0487 32.1589 40.1208 32.1074 40.2288 32.1074H40.548C40.6972 32.1074 40.7796 32.2001 40.7796 32.3082C40.7796 32.3545 40.7693 32.4162 40.7281 32.4986L38.5972 37.8464C38.5457 37.9648 38.4737 38.0214 38.3656 38.0214H37.7377C37.6399 38.0265 37.5678 37.9648 37.5163 37.8464Z" fill="#653C8C"/>
<path d="M42.0975 37.2547C41.7012 36.6731 41.5674 36.1172 41.5674 35.0672C41.5674 34.1098 41.7166 33.554 42.1336 32.926C42.5402 32.3238 43.2299 31.9893 44.0894 31.9893C45.6284 31.9893 46.5755 32.9826 46.5755 34.5834V35.1135C46.5755 35.2422 46.4622 35.3503 46.3284 35.3503H42.463C42.3909 35.3503 42.3394 35.3966 42.3394 35.4687C42.3394 36.7348 42.9777 37.4451 44.1152 37.4451C44.9027 37.4451 45.5306 37.1518 45.7674 36.3334C45.8034 36.2047 45.9166 36.1326 46.0505 36.1326H46.2975C46.4468 36.1326 46.5291 36.2253 46.5086 36.3694C46.3593 37.4246 45.3865 38.1451 44.1203 38.1451C43.1939 38.1451 42.4887 37.8363 42.0975 37.2547ZM45.6799 34.6863C45.7519 34.6863 45.8034 34.64 45.8034 34.5679C45.8034 33.3584 45.1858 32.6841 44.1049 32.6841C43.0343 32.6841 42.3549 33.4047 42.3549 34.5679C42.3549 34.64 42.4064 34.6863 42.4784 34.6863H45.6799Z" fill="#653C8C"/>
<path d="M48.1914 37.7898V32.3442C48.1914 32.2155 48.3046 32.1074 48.4385 32.1074H48.598C48.7318 32.1074 48.8091 32.1795 48.8451 32.3442C48.8811 32.4986 48.8811 32.756 49.0664 32.756C49.3855 32.756 49.6068 32.1074 50.7289 32.1074H50.8782C51.012 32.1074 51.1252 32.2155 51.1252 32.3442V32.5912C51.1252 32.7199 51.012 32.828 50.8782 32.828H50.7186C49.9311 32.828 48.9223 33.2552 48.9223 34.8302V37.7898C48.9223 37.9184 48.8091 38.0265 48.6752 38.0265H48.4436C48.2995 38.0265 48.1914 37.9184 48.1914 37.7898Z" fill="#653C8C"/>
<path d="M51.5996 36.0963C51.5996 35.9677 51.7128 35.8596 51.8467 35.8596H52.0937C52.2276 35.8596 52.3408 35.9677 52.3408 36.0963C52.3408 36.9611 52.9584 37.4809 53.993 37.4809C55.0173 37.4809 55.604 37.1 55.604 36.4412C55.604 35.7772 55.2077 35.5199 53.818 35.2471C52.4489 34.9846 51.8724 34.4905 51.8724 33.5794C51.8724 32.6581 52.7834 31.9941 54.029 31.9941C55.3724 31.9941 56.2062 32.6684 56.2062 33.7699C56.2062 33.8986 56.093 34.0066 55.9592 34.0066H55.7121C55.5783 34.0066 55.4651 33.8986 55.4651 33.7699C55.4651 33.0133 54.9967 32.6478 54.0239 32.6478C53.1643 32.6478 52.6445 33.003 52.6445 33.5846C52.6445 34.1302 52.9996 34.3515 54.3687 34.6603C55.882 35.0052 56.3401 35.4169 56.3401 36.4463C56.3401 37.4861 55.4187 38.15 53.9878 38.15C52.5106 38.1449 51.5996 37.3625 51.5996 36.0963Z" fill="#653C8C"/>
<path d="M57.6211 30.512V29.812C57.6211 29.7194 57.7086 29.6216 57.8167 29.6216H58.5321C58.6454 29.6216 58.7277 29.7142 58.7277 29.812V30.512C58.7277 30.6201 58.6402 30.7025 58.5321 30.7025H57.8167C57.7086 30.6973 57.6211 30.615 57.6211 30.512ZM58.3005 38.0267H58.0534C57.8836 38.0267 57.8064 37.9186 57.8064 37.79V32.3444C57.8064 32.2157 57.8784 32.1076 58.0534 32.1076H58.3005C58.4704 32.1076 58.5476 32.2157 58.5476 32.3444V37.79C58.5476 37.9186 58.4704 38.0267 58.3005 38.0267Z" fill="#653C8C"/>
<path d="M61.0801 36.1324V32.9824C61.0801 32.9104 61.0286 32.8641 60.9565 32.8641H59.958C59.8242 32.8641 59.7109 32.756 59.7109 32.6273V32.4008C59.7109 32.2722 59.8242 32.1641 59.958 32.1641H60.9565C61.0286 32.1641 61.0801 32.1177 61.0801 32.0457V30.2133C61.0801 30.0847 61.1933 29.9766 61.3271 29.9766H61.5742C61.708 29.9766 61.8212 30.0847 61.8212 30.2133V32.0457C61.8212 32.1177 61.8727 32.1641 61.9448 32.1641H63.494C63.6278 32.1641 63.7411 32.2722 63.7411 32.4008V32.6273C63.7411 32.756 63.6278 32.8641 63.494 32.8641H61.9448C61.8727 32.8641 61.8212 32.9104 61.8212 32.9824V36.1324C61.8212 36.9354 62.1146 37.3266 62.9896 37.3266H63.6176C63.7514 37.3266 63.8646 37.4347 63.8646 37.5633V37.7898C63.8646 37.9185 63.7514 38.0266 63.6176 38.0266H62.9896C61.708 38.0266 61.0801 37.4913 61.0801 36.1324Z" fill="#653C8C"/>
<path d="M65.8458 40.204C65.8458 40.1474 65.8561 40.0856 65.8819 40.029L66.7414 37.7797C66.7672 37.7231 66.7775 37.6871 66.7775 37.6613C66.7775 37.6253 66.7672 37.5893 66.7414 37.5326L64.487 32.504C64.451 32.4216 64.4355 32.3599 64.4355 32.3135C64.4355 32.2054 64.523 32.1128 64.6672 32.1128H65.012C65.1253 32.1128 65.1819 32.1488 65.2436 32.2929L67.1275 36.6268C67.1532 36.6834 67.1635 36.6988 67.1892 36.6988C67.215 36.6988 67.2253 36.6885 67.251 36.6268L68.8877 32.2929C68.9495 32.1488 69.0113 32.1128 69.1194 32.1128H69.4642C69.6135 32.1128 69.6958 32.2054 69.6958 32.3135C69.6958 32.3599 69.6855 32.4216 69.6444 32.504L66.5664 40.2194C66.515 40.3481 66.4429 40.3996 66.3348 40.3996H66.062C65.9179 40.3944 65.8458 40.3224 65.8458 40.204Z" fill="#653C8C"/>
<path d="M73.49 37.0797C73.1709 36.5804 73.0576 36.1326 73.0576 35.0672C73.0576 34.0018 73.1554 33.5385 73.49 33.0547C73.9481 32.3907 74.6738 31.9893 75.5694 31.9893C76.4701 31.9893 77.2216 32.3804 77.6488 33.0547C77.9834 33.5385 78.0811 34.0018 78.0811 35.0672C78.0811 36.1326 77.9834 36.5959 77.6488 37.0797C77.2164 37.754 76.465 38.1451 75.5694 38.1451C74.6738 38.1451 73.9223 37.754 73.49 37.0797ZM77.0878 36.5341C77.2576 36.1893 77.3091 35.8701 77.3091 35.0672C77.3091 34.2643 77.2576 33.9451 77.0878 33.6003C76.815 33.0444 76.2385 32.6893 75.5745 32.6893C74.9106 32.6893 74.3444 33.0444 74.0613 33.6003C73.8863 33.9451 73.84 34.2643 73.84 35.0672C73.84 35.8701 73.8914 36.1893 74.0613 36.5341C74.3444 37.09 74.9106 37.4451 75.5745 37.4451C76.2385 37.4451 76.815 37.09 77.0878 36.5341Z" fill="#653C8C"/>
<path d="M80.2371 37.79V32.9826C80.2371 32.9106 80.1856 32.8642 80.1135 32.8642H79.043C78.9091 32.8642 78.7959 32.7561 78.7959 32.6275V32.401C78.7959 32.2723 78.904 32.1642 79.043 32.1642H80.1135C80.1856 32.1642 80.2371 32.1179 80.2371 32.0458V31.8348C80.2371 30.476 81.0503 29.6216 82.3319 29.6216H82.3937C82.5275 29.6216 82.6408 29.7297 82.6408 29.8583V30.0488C82.6408 30.1775 82.5327 30.2856 82.3937 30.2856H82.3319C81.4827 30.2856 80.9783 30.8672 80.9783 31.8348V32.0458C80.9783 32.1179 81.0297 32.1642 81.1018 32.1642H82.5069C82.6408 32.1642 82.754 32.2723 82.754 32.401V32.6275C82.754 32.7561 82.6459 32.8642 82.5069 32.8642H81.1018C81.0297 32.8642 80.9783 32.9106 80.9783 32.9826V37.79C80.9783 37.9186 80.8702 38.0267 80.7312 38.0267H80.4841C80.3503 38.0267 80.2371 37.9186 80.2371 37.79Z" fill="#653C8C"/>
<path d="M19.2246 50.966C19.2246 50.9197 19.2349 50.8733 19.2503 50.8373L21.5923 43.0395C21.6283 42.9211 21.7158 42.8594 21.8239 42.8594H22.4415C22.5548 42.8594 22.6371 42.9211 22.6731 43.0395L25.0151 50.8373C25.0253 50.8733 25.0408 50.9197 25.0408 50.966C25.0408 51.0586 24.9533 51.141 24.7834 51.141H24.4746C24.3614 51.141 24.279 51.0844 24.243 50.966L23.6408 48.9638C23.6048 48.8454 23.5173 48.7991 23.4092 48.7991H20.8717C20.7584 48.7991 20.6761 48.8454 20.6401 48.9638L20.0378 50.966C20.0018 51.0844 19.9143 51.141 19.8062 51.141H19.4974C19.307 51.1461 19.2246 51.0638 19.2246 50.966ZM23.2136 48.0682C23.2856 48.0682 23.3371 48.0322 23.3114 47.9395L22.1893 43.9145C22.179 43.8682 22.1636 43.8425 22.1378 43.8425H22.1121C22.0864 43.8425 22.0761 43.8682 22.0606 43.9145L20.9386 47.9395C20.9128 48.0322 20.9643 48.0682 21.0364 48.0682H23.2136Z" fill="#653C8C"/>
<path d="M26.25 53.277V45.4638C26.25 45.3351 26.3632 45.227 26.4971 45.227H26.6926C26.7801 45.227 26.8265 45.2527 26.8779 45.3351C26.9654 45.4895 27.0632 45.5616 27.1713 45.5616C27.4647 45.5616 27.6037 45.1138 28.5868 45.1138C29.4618 45.1138 30.1618 45.4689 30.5221 46.0866C30.8309 46.6424 30.939 47.2086 30.939 48.1917C30.939 49.2108 30.8257 49.7667 30.5221 50.2969C30.1669 50.9145 29.4618 51.2697 28.5868 51.2697C27.6243 51.2697 27.4801 50.9145 27.2176 50.9145C27.0478 50.9145 26.9706 51.0226 26.9706 51.2697V53.2821C26.9706 53.4108 26.8574 53.5189 26.7235 53.5189H26.4919C26.3632 53.5138 26.25 53.4057 26.25 53.277ZM29.9971 49.6535C30.1309 49.288 30.1824 48.9174 30.1824 48.1866C30.1824 47.4402 30.1309 47.0491 29.9971 46.7196C29.7243 46.0814 29.3074 45.8086 28.5919 45.8086C27.8919 45.8086 27.4699 46.0814 27.1868 46.7196C27.0529 47.0491 27.0015 47.4402 27.0015 48.1866C27.0015 48.9226 27.0529 49.288 27.1868 49.6535C27.4441 50.2917 27.8765 50.5645 28.5919 50.5645C29.3074 50.5645 29.7346 50.2917 29.9971 49.6535Z" fill="#653C8C"/>
<path d="M32.5557 53.277V45.4638C32.5557 45.3351 32.6689 45.227 32.8027 45.227H32.9983C33.0858 45.227 33.1321 45.2527 33.1836 45.3351C33.2711 45.4895 33.3689 45.5616 33.477 45.5616C33.7704 45.5616 33.9093 45.1138 34.8924 45.1138C35.7674 45.1138 36.4674 45.4689 36.8277 46.0866C37.1365 46.6424 37.2446 47.2086 37.2446 48.1917C37.2446 49.2108 37.1314 49.7667 36.8277 50.2969C36.4726 50.9145 35.7674 51.2697 34.8924 51.2697C33.9299 51.2697 33.7858 50.9145 33.5233 50.9145C33.3535 50.9145 33.2763 51.0226 33.2763 51.2697V53.2821C33.2763 53.4108 33.163 53.5189 33.0292 53.5189H32.7976C32.6689 53.5138 32.5557 53.4057 32.5557 53.277ZM36.2976 49.6535C36.4314 49.288 36.4829 48.9174 36.4829 48.1866C36.4829 47.4402 36.4314 47.0491 36.2976 46.7196C36.0299 46.0814 35.6079 45.8086 34.8976 45.8086C34.1976 45.8086 33.7755 46.0814 33.4924 46.7196C33.3586 47.0491 33.3071 47.4402 33.3071 48.1866C33.3071 48.9226 33.3586 49.288 33.4924 49.6535C33.7498 50.2917 34.1821 50.5645 34.8976 50.5645C35.6079 50.5645 36.0402 50.2917 36.2976 49.6535Z" fill="#653C8C"/>
<path d="M38.8604 50.9096V42.978C38.8604 42.8493 38.9736 42.7412 39.1074 42.7412H39.3545C39.4883 42.7412 39.6015 42.8493 39.6015 42.978V50.9096C39.6015 51.0383 39.4883 51.1464 39.3545 51.1464H39.1074C38.9684 51.1464 38.8604 51.0383 38.8604 50.9096Z" fill="#653C8C"/>
<path d="M41.249 43.6316V42.9317C41.249 42.839 41.3365 42.7412 41.4446 42.7412H42.1601C42.2733 42.7412 42.3556 42.8339 42.3556 42.9317V43.6316C42.3556 43.7397 42.2681 43.8221 42.1601 43.8221H41.4446C41.3314 43.8221 41.249 43.7346 41.249 43.6316ZM41.9233 51.1464H41.6762C41.5064 51.1464 41.4292 51.0383 41.4292 50.9096V45.464C41.4292 45.3353 41.5012 45.2272 41.6762 45.2272H41.9233C42.0931 45.2272 42.1703 45.3353 42.1703 45.464V50.9096C42.1703 51.0383 42.0983 51.1464 41.9233 51.1464Z" fill="#653C8C"/>
<path d="M44.3007 50.3743C43.9043 49.7927 43.7705 49.2368 43.7705 48.1868C43.7705 47.2295 43.9198 46.6736 44.3367 46.0457C44.7433 45.4434 45.433 45.1089 46.2926 45.1089C47.8315 45.1089 48.7786 46.1023 48.7786 47.703V48.2332C48.7786 48.3618 48.6654 48.4699 48.5315 48.4699H44.6661C44.594 48.4699 44.5426 48.5162 44.5426 48.5883C44.5426 49.8545 45.1808 50.5648 46.3183 50.5648C47.1058 50.5648 47.7337 50.2714 47.9705 49.453C48.0065 49.3243 48.1198 49.2523 48.2536 49.2523H48.5007C48.6499 49.2523 48.7323 49.3449 48.7117 49.489C48.5624 50.5442 47.5896 51.2648 46.3234 51.2648C45.397 51.2648 44.697 50.9559 44.3007 50.3743ZM47.883 47.8111C47.9551 47.8111 48.0065 47.7648 48.0065 47.6927C48.0065 46.4832 47.3889 45.8089 46.308 45.8089C45.2374 45.8089 44.558 46.5295 44.558 47.6927C44.558 47.7648 44.6095 47.8111 44.6815 47.8111H47.883Z" fill="#653C8C"/>
<path d="M50.581 50.2919C50.2721 49.7618 50.1641 49.2008 50.1641 48.1868C50.1641 47.1677 50.2773 46.6118 50.581 46.0817C50.9361 45.464 51.6413 45.1089 52.5163 45.1089C53.4788 45.1089 53.6229 45.464 53.8854 45.464C54.0552 45.464 54.1324 45.3559 54.1324 45.1089V42.978C54.1324 42.8493 54.2457 42.7412 54.3795 42.7412H54.6111C54.7449 42.7412 54.8582 42.8493 54.8582 42.978V50.9096C54.8582 51.0383 54.7449 51.1464 54.6111 51.1464H54.4155C54.328 51.1464 54.2817 51.1206 54.2302 51.0383C54.1427 50.8839 54.0449 50.8118 53.9369 50.8118C53.6435 50.8118 53.5045 51.2596 52.5214 51.2596C51.6413 51.2647 50.9361 50.9096 50.581 50.2919ZM53.9163 49.6537C54.0501 49.3243 54.1016 48.9692 54.1016 48.1868C54.1016 47.4508 54.0501 47.0853 53.9163 46.7199C53.6589 46.0816 53.2266 45.8089 52.5111 45.8089C51.7957 45.8089 51.3633 46.0816 51.106 46.7199C50.9722 47.0853 50.9207 47.4559 50.9207 48.1868C50.9207 48.9331 50.9722 49.3243 51.106 49.6537C51.3788 50.2919 51.7957 50.5647 52.5111 50.5647C53.2163 50.5647 53.6332 50.2919 53.9163 49.6537Z" fill="#653C8C"/>
<path d="M58.9648 48.7787V48.5883C58.9648 48.4596 59.0781 48.3515 59.2119 48.3515H59.531C59.6648 48.3515 59.7781 48.4596 59.7781 48.5883V48.7787C59.7781 49.8699 60.5398 50.5081 61.6156 50.5081C62.6759 50.5081 63.4273 49.9625 63.4273 48.8971C63.4273 47.8059 62.6141 47.4508 61.4097 47.1214C60.3391 46.828 59.2068 46.2464 59.2068 44.8258C59.2068 43.3949 60.4523 42.7412 61.6825 42.7412C63.0619 42.7412 64.0862 43.5596 64.0862 44.9905V45.1449C64.0862 45.2736 63.9729 45.3817 63.8391 45.3817H63.5303C63.3965 45.3817 63.2832 45.2736 63.2832 45.1449V44.9905C63.2832 43.9971 62.5935 43.4978 61.6825 43.4978C60.7097 43.4978 60.0457 43.925 60.0457 44.8258C60.0457 45.8191 61.0185 46.2 62.1406 46.5089C63.2832 46.828 64.2715 47.4456 64.2715 48.8971C64.2715 50.4258 62.9898 51.2647 61.6259 51.2647C60.0972 51.2647 58.9648 50.4103 58.9648 48.7787Z" fill="#653C8C"/>
<path d="M65.9343 50.1993C65.538 49.6177 65.502 49.0412 65.502 48.1868C65.502 47.3324 65.538 46.7559 65.9343 46.1743C66.3667 45.5361 67.0821 45.1089 68.0137 45.1089C68.6931 45.1089 69.2799 45.289 69.6865 45.639C70.1034 46.0199 70.3247 46.5758 70.3247 47.1162C70.3247 47.2449 70.2527 47.353 70.1137 47.353H69.8049C69.6917 47.353 69.5733 47.2964 69.5733 47.1626C69.5733 46.7817 69.424 46.3802 69.1152 46.1229C68.8424 45.9118 68.4615 45.8037 68.0086 45.8037C67.3292 45.8037 66.7784 46.1229 66.4953 46.7148C66.31 47.0957 66.274 47.4971 66.274 48.1817C66.274 48.8662 66.31 49.2729 66.4953 49.6486C66.7784 50.2405 67.3343 50.5596 68.0086 50.5596C68.5645 50.5596 68.9711 50.3949 69.213 50.1221C69.4446 49.8596 69.5578 49.5045 69.5578 49.2111C69.5578 49.0567 69.6814 49.0104 69.7895 49.0104H70.0725C70.2064 49.0104 70.3196 49.1184 70.3196 49.2471C70.3196 49.7309 70.124 50.2302 69.7895 50.5854C69.3828 51.0126 68.7549 51.2596 68.0034 51.2596C67.0769 51.2648 66.3615 50.8376 65.9343 50.1993Z" fill="#653C8C"/>
<path d="M71.6572 43.6316V42.9317C71.6572 42.839 71.7447 42.7412 71.8528 42.7412H72.5683C72.6815 42.7412 72.7638 42.8339 72.7638 42.9317V43.6316C72.7638 43.7397 72.6763 43.8221 72.5683 43.8221H71.8528C71.7447 43.8221 71.6572 43.7346 71.6572 43.6316ZM72.3315 51.1464H72.0844C71.9146 51.1464 71.8374 51.0383 71.8374 50.9096V45.464C71.8374 45.3353 71.9094 45.2272 72.0844 45.2272H72.3315C72.5013 45.2272 72.5785 45.3353 72.5785 45.464V50.9096C72.5785 51.0383 72.5065 51.1464 72.3315 51.1464Z" fill="#653C8C"/>
<path d="M74.7255 50.3743C74.3291 49.7927 74.1953 49.2368 74.1953 48.1868C74.1953 47.2295 74.3446 46.6736 74.7615 46.0457C75.1681 45.4434 75.8578 45.1089 76.7174 45.1089C78.2563 45.1089 79.2034 46.1023 79.2034 47.703V48.2332C79.2034 48.3618 79.0902 48.4699 78.9563 48.4699H75.0909C75.0188 48.4699 74.9674 48.5162 74.9674 48.5883C74.9674 49.8545 75.6056 50.5648 76.7431 50.5648C77.5306 50.5648 78.1585 50.2714 78.3953 49.453C78.4313 49.3243 78.5446 49.2523 78.6784 49.2523H78.9255C79.0747 49.2523 79.1622 49.3449 79.1365 49.489C78.9872 50.5442 78.0144 51.2648 76.7483 51.2648C75.8166 51.2648 75.1166 50.9559 74.7255 50.3743ZM78.3078 47.8111C78.3799 47.8111 78.4313 47.7648 78.4313 47.6927C78.4313 46.4832 77.8137 45.8089 76.7328 45.8089C75.6622 45.8089 74.9828 46.5295 74.9828 47.6927C74.9828 47.7648 75.0343 47.8111 75.1063 47.8111H78.3078Z" fill="#653C8C"/>
<path d="M80.8037 50.9096V45.464C80.8037 45.3354 80.9169 45.2273 81.0508 45.2273H81.2464C81.3184 45.2273 81.3699 45.2633 81.4162 45.3096C81.478 45.4177 81.5397 45.5464 81.6633 45.5464C81.9978 45.5464 82.1059 45.1089 83.3 45.1089C84.4684 45.1089 85.3794 45.7729 85.3794 47.0751V50.9096C85.3794 51.0383 85.2662 51.1464 85.1324 51.1464H84.9008C84.7669 51.1464 84.6537 51.0383 84.6537 50.9096V47.1832C84.6537 46.2361 83.9743 45.8089 83.089 45.8089C82.2037 45.8089 81.5243 46.2361 81.5243 47.1832V50.9096C81.5243 51.0383 81.4162 51.1464 81.2772 51.1464H81.0456C80.9169 51.1464 80.8037 51.0383 80.8037 50.9096Z" fill="#653C8C"/>
<path d="M87.3669 50.1993C86.9706 49.6177 86.9346 49.0412 86.9346 48.1868C86.9346 47.3324 86.9706 46.7559 87.3669 46.1743C87.7993 45.5361 88.5147 45.1089 89.4463 45.1089C90.1257 45.1089 90.7125 45.289 91.1191 45.639C91.536 46.0199 91.7574 46.5758 91.7574 47.1162C91.7574 47.2449 91.6853 47.353 91.5463 47.353H91.2375C91.1294 47.353 91.0008 47.2964 91.0008 47.1626C91.0008 46.7817 90.8515 46.3802 90.5478 46.1229C90.275 45.9118 89.8941 45.8037 89.4412 45.8037C88.7618 45.8037 88.211 46.1229 87.928 46.7148C87.7427 47.0957 87.7066 47.4971 87.7066 48.1817C87.7066 48.8662 87.7427 49.2729 87.928 49.6486C88.211 50.2405 88.7669 50.5596 89.4412 50.5596C89.9971 50.5596 90.4037 50.3949 90.6456 50.1221C90.8824 49.8596 90.9905 49.5045 90.9905 49.2111C90.9905 49.0567 91.114 49.0104 91.2272 49.0104H91.5103C91.6441 49.0104 91.7574 49.1184 91.7574 49.2471C91.7574 49.7309 91.5618 50.2302 91.2272 50.5854C90.8206 51.0126 90.1927 51.2596 89.4412 51.2596C88.5147 51.2648 87.7993 50.8376 87.3669 50.1993Z" fill="#653C8C"/>
<path d="M93.4706 50.3743C93.0743 49.7927 92.9404 49.2368 92.9404 48.1868C92.9404 47.2295 93.0897 46.6736 93.5066 46.0457C93.9132 45.4434 94.6029 45.1089 95.4625 45.1089C97.0015 45.1089 97.9485 46.1023 97.9485 47.703V48.2332C97.9485 48.3618 97.8353 48.4699 97.7015 48.4699H93.836C93.764 48.4699 93.7125 48.5162 93.7125 48.5883C93.7125 49.8545 94.3507 50.5648 95.4882 50.5648C96.2757 50.5648 96.9037 50.2714 97.1404 49.453C97.1765 49.3243 97.2897 49.2523 97.4235 49.2523H97.6706C97.8198 49.2523 97.9073 49.3449 97.8816 49.489C97.7323 50.5442 96.7595 51.2648 95.4934 51.2648C94.5669 51.2648 93.8669 50.9559 93.4706 50.3743ZM97.0581 47.8111C97.1301 47.8111 97.1816 47.7648 97.1816 47.6927C97.1816 46.4832 96.564 45.8089 95.4831 45.8089C94.4125 45.8089 93.7331 46.5295 93.7331 47.6927C93.7331 47.7648 93.7845 47.8111 93.8566 47.8111H97.0581Z" fill="#653C8C"/>
<path d="M99.1377 49.216C99.1377 49.0873 99.2509 48.9792 99.3848 48.9792H99.6318C99.7656 48.9792 99.8789 49.0873 99.8789 49.216C99.8789 50.0807 100.497 50.6005 101.531 50.6005C102.555 50.6005 103.142 50.2197 103.142 49.5608C103.142 48.8969 102.746 48.6395 101.356 48.3667C99.987 48.1042 99.4105 47.6101 99.4105 46.6991C99.4105 45.7777 100.322 45.1138 101.567 45.1138C102.91 45.1138 103.749 45.788 103.749 46.8895C103.749 47.0182 103.636 47.1263 103.502 47.1263H103.255C103.122 47.1263 103.008 47.0182 103.008 46.8895C103.008 46.1329 102.54 45.7674 101.567 45.7674C100.708 45.7674 100.188 46.1226 100.188 46.7042C100.188 47.2498 100.543 47.4711 101.912 47.7799C103.425 48.1248 103.883 48.5366 103.883 49.566C103.883 50.6057 102.962 51.2697 101.531 51.2697C100.049 51.2645 99.1377 50.4822 99.1377 49.216Z" fill="#653C8C"/>
<path d="M235.122 44.7947L215.8 33.5999L234.381 22.9969C234.613 22.858 234.803 22.5285 234.803 22.2609V16.6455C234.803 16.3212 234.536 16.2388 234.304 16.3778L210.823 30.1205V17.0109C210.823 16.7433 210.602 16.5219 210.334 16.5219H205.398C205.131 16.5219 204.909 16.7433 204.909 17.0109V50.791C204.909 51.0587 205.131 51.28 205.398 51.28H210.334C210.602 51.28 210.823 51.0638 210.823 50.791V37.0484L234.973 51.383C235.205 51.5219 235.534 51.4344 235.534 51.105L235.544 45.5256C235.544 45.191 235.354 44.9285 235.122 44.7947Z" fill="#653C8C"/>
<path d="M256.755 35.2728L262.793 23.1412L268.784 35.2728H256.755ZM283.587 50.7397L266.494 16.939C266.37 16.6971 266.149 16.5015 265.835 16.5015H260.266C259.941 16.5015 259.674 16.7125 259.55 16.9338L241.988 50.7037C241.865 50.9404 241.999 51.2544 242.349 51.2544H248.252C248.52 51.2544 248.839 51.0588 248.958 50.8169L254.084 40.6926H271.352L276.427 50.8169C276.546 51.0588 276.865 51.2544 277.133 51.2544H283.237C283.561 51.2596 283.705 50.9816 283.587 50.7397Z" fill="#653C8C"/>
<path d="M187.281 16.9904C187.281 16.7228 187.502 16.5015 187.77 16.5015H192.706C192.973 16.5015 193.195 16.7228 193.195 16.9904V50.7706C193.195 51.0382 192.973 51.2596 192.706 51.2596H187.77C187.502 51.2596 187.281 51.0382 187.281 50.7706V16.9904ZM184.002 31.2169H169.209V16.9904C169.209 16.7228 168.988 16.5015 168.72 16.5015H163.784C163.517 16.5015 163.295 16.7228 163.295 16.9904V31.2118H148.503C148.235 31.2118 148.014 31.4331 148.014 31.7007V36.0603C148.014 36.3279 148.235 36.5493 148.503 36.5493H163.295V50.7706C163.295 51.0382 163.517 51.2596 163.784 51.2596H168.72C168.988 51.2596 169.209 51.0382 169.209 50.7706V36.5493H184.002C184.27 36.5493 184.491 36.3279 184.491 36.0603V31.7007C184.486 31.4331 184.27 31.2169 184.002 31.2169Z" fill="#653C8C"/>
</svg>
